<svg width="48" height="34" viewBox="0 0 48 34" fill="none" xmlns="http://www.w3.org/2000/svg">
<g id="Group">
<g id="Group_2">
<path id="Vector" d="M23.6276 25.5384C24.0132 25.6886 24.268 26.0661 24.268 26.4883V32.509C24.268 33.2193 23.574 33.7074 22.9257 33.4568C19.5501 32.1477 16.124 30.933 11.5449 31.0375C7.79456 31.1268 4.62617 32.0696 2.27665 33.0397C1.60451 33.3178 0.851074 32.8236 0.851074 32.0818V26.128C0.851074 25.7343 1.07314 25.374 1.42606 25.2147C3.83507 24.1289 7.32168 22.9467 11.5449 22.8462C16.4412 22.7336 20.016 24.1309 23.6276 25.5384Z" fill="#0A3F7A"/>
</g>
<g id="Group_3">
<path id="Vector_2" d="M45.7428 13.1823C46.411 12.9164 47.1486 13.4096 47.1486 14.1422V20.1163C47.1486 20.5181 46.9166 20.8834 46.5537 21.0387C42.05 22.9698 38.3235 23.393 35.7112 23.4082C31.0816 23.4336 27.6267 22.1966 24.268 20.8916C20.4384 19.4049 16.7307 17.831 11.5449 17.9497C7.79356 18.0349 4.62419 18.9807 2.27467 19.9498C1.60252 20.2269 0.851074 19.7337 0.851074 18.9919V13.0371C0.851074 12.6414 1.07413 12.2811 1.42705 12.1228C3.83705 11.04 7.32168 9.85377 11.5449 9.75838C16.7307 9.63864 20.4384 11.2136 24.268 12.6992C27.6267 14.0042 31.0816 15.2423 35.7112 15.2159C38.1649 15.2017 41.6029 14.8272 45.7428 13.1823Z" fill="#0A3F7A"/>
</g>
<g id="Group_4">
<path id="Vector_3" d="M45.7429 0.072539C46.4111 -0.192319 47.1486 0.29985 47.1486 1.03354V7.00249C47.1486 7.40434 46.9167 7.76966 46.5548 7.92492C42.0511 9.86011 38.3236 10.2843 35.7113 10.2995C31.3712 10.3229 28.066 9.23501 24.9085 8.02945C24.5228 7.88129 24.2681 7.50379 24.2681 7.08164V1.06094C24.2681 0.350589 24.962 -0.138536 25.6143 0.103997C28.5656 1.20199 31.6973 2.1295 35.7113 2.10718C38.1649 2.09297 41.603 1.71852 45.7429 0.072539Z" fill="#0A3F7A"/>
</g>
</g>
</svg>
